<mxfile host="drawio-plugin" modified="2024-05-08T06:24:20.758Z" agent="5.0 (Windows NT 10.0; Win64; x64) AppleWebKit/537.36 (KHTML, like Gecko) Chrome/122.0.0.0 Safari/537.36" etag="DcKIvDtVk_2kJWlyclMD" version="20.5.3" type="embed"><diagram id="C5RBs43oDa-KdzZeNtuy" name="Page-1"><mxGraphModel dx="2275" dy="848" grid="1" gridSize="10" guides="1" tooltips="1" connect="1" arrows="1" fold="1" page="1" pageScale="1" pageWidth="827" pageHeight="1169" math="0" shadow="0"><root><mxCell id="WIyWlLk6GJQsqaUBKTNV-0"/><mxCell id="WIyWlLk6GJQsqaUBKTNV-1" parent="WIyWlLk6GJQsqaUBKTNV-0"/><mxCell id="Ej2ZJ5dRe7RWiWZ61lz6-0" value="" style="rounded=0;whiteSpace=wrap;html=1;sketch=1;curveFitting=1;jiggle=2;" parent="WIyWlLk6GJQsqaUBKTNV-1" vertex="1"><mxGeometry x="-31" y="40" width="890" height="480" as="geometry"/></mxCell><mxCell id="Ej2ZJ5dRe7RWiWZ61lz6-28" value="" style="rounded=0;whiteSpace=wrap;html=1;fillColor=none;strokeColor=#9673a6;glass=0;shadow=0;sketch=1;curveFitting=1;jiggle=2;" parent="WIyWlLk6GJQsqaUBKTNV-1" vertex="1"><mxGeometry y="80" width="500" height="280" as="geometry"/></mxCell><mxCell id="Ej2ZJ5dRe7RWiWZ61lz6-11" value="" style="rounded=0;whiteSpace=wrap;html=1;fillColor=none;strokeColor=#b85450;sketch=1;curveFitting=1;jiggle=2;" parent="WIyWlLk6GJQsqaUBKTNV-1" vertex="1"><mxGeometry x="20" y="114" width="170" height="220" as="geometry"/></mxCell><mxCell id="Ej2ZJ5dRe7RWiWZ61lz6-1" value="&lt;font style=&quot;font-size: 20px;&quot;&gt;Core&amp;nbsp;&lt;/font&gt;" style="text;html=1;strokeColor=none;fillColor=none;align=center;verticalAlign=middle;whiteSpace=wrap;rounded=0;" parent="WIyWlLk6GJQsqaUBKTNV-1" vertex="1"><mxGeometry x="-20" y="40" width="80" height="30" as="geometry"/></mxCell><mxCell id="ZdJ8CydNvx8ROQ2hmb3w-4" style="edgeStyle=orthogonalEdgeStyle;rounded=0;orthogonalLoop=1;jettySize=auto;html=1;entryX=0.5;entryY=1;entryDx=0;entryDy=0;sketch=1;curveFitting=1;jiggle=2;" parent="WIyWlLk6GJQsqaUBKTNV-1" source="Ej2ZJ5dRe7RWiWZ61lz6-5" target="Ej2ZJ5dRe7RWiWZ61lz6-7" edge="1"><mxGeometry relative="1" as="geometry"/></mxCell><mxCell id="Ej2ZJ5dRe7RWiWZ61lz6-5" value="Kafka Producer" style="rounded=1;whiteSpace=wrap;html=1;fontSize=12;glass=0;strokeWidth=1;shadow=0;sketch=1;curveFitting=1;jiggle=2;" parent="WIyWlLk6GJQsqaUBKTNV-1" vertex="1"><mxGeometry x="231" y="280" width="120" height="40" as="geometry"/></mxCell><mxCell id="ZdJ8CydNvx8ROQ2hmb3w-5" style="edgeStyle=orthogonalEdgeStyle;rounded=0;orthogonalLoop=1;jettySize=auto;html=1;sketch=1;curveFitting=1;jiggle=2;" parent="WIyWlLk6GJQsqaUBKTNV-1" source="Ej2ZJ5dRe7RWiWZ61lz6-7" edge="1"><mxGeometry relative="1" as="geometry"><Array as="points"><mxPoint x="290" y="190"/><mxPoint x="290" y="190"/></Array><mxPoint x="290" y="174" as="targetPoint"/></mxGeometry></mxCell><mxCell id="Ej2ZJ5dRe7RWiWZ61lz6-7" value="Kafka Consumer" style="rounded=1;whiteSpace=wrap;html=1;fontSize=12;glass=0;strokeWidth=1;shadow=0;sketch=1;curveFitting=1;jiggle=2;" parent="WIyWlLk6GJQsqaUBKTNV-1" vertex="1"><mxGeometry x="231" y="203" width="120" height="40" as="geometry"/></mxCell><mxCell id="Ej2ZJ5dRe7RWiWZ61lz6-12" value="Batch" style="text;html=1;strokeColor=none;fillColor=none;align=center;verticalAlign=middle;whiteSpace=wrap;rounded=0;" parent="WIyWlLk6GJQsqaUBKTNV-1" vertex="1"><mxGeometry x="20" y="114" width="60" height="20" as="geometry"/></mxCell><mxCell id="Ej2ZJ5dRe7RWiWZ61lz6-35" style="edgeStyle=orthogonalEdgeStyle;rounded=0;orthogonalLoop=1;jettySize=auto;html=1;sketch=1;curveFitting=1;jiggle=2;" parent="WIyWlLk6GJQsqaUBKTNV-1" source="Ej2ZJ5dRe7RWiWZ61lz6-21" target="Ej2ZJ5dRe7RWiWZ61lz6-33" edge="1"><mxGeometry relative="1" as="geometry"/></mxCell><mxCell id="Ej2ZJ5dRe7RWiWZ61lz6-21" value="Http Connection&lt;br&gt;요청" style="rounded=1;whiteSpace=wrap;html=1;fontSize=12;glass=0;strokeWidth=1;shadow=0;sketch=1;curveFitting=1;jiggle=2;" parent="WIyWlLk6GJQsqaUBKTNV-1" vertex="1"><mxGeometry x="41" y="203" width="120" height="40" as="geometry"/></mxCell><mxCell id="Ej2ZJ5dRe7RWiWZ61lz6-37" style="edgeStyle=orthogonalEdgeStyle;rounded=0;orthogonalLoop=1;jettySize=auto;html=1;entryX=0;entryY=0.5;entryDx=0;entryDy=0;sketch=1;curveFitting=1;jiggle=2;exitX=1;exitY=0.5;exitDx=0;exitDy=0;" parent="WIyWlLk6GJQsqaUBKTNV-1" source="Ej2ZJ5dRe7RWiWZ61lz6-33" target="Ej2ZJ5dRe7RWiWZ61lz6-5" edge="1"><mxGeometry relative="1" as="geometry"><mxPoint x="351" y="285.0344827586207" as="sourcePoint"/></mxGeometry></mxCell><mxCell id="Ej2ZJ5dRe7RWiWZ61lz6-29" value="Schedule" style="text;html=1;align=center;verticalAlign=middle;whiteSpace=wrap;rounded=0;shadow=0;glass=0;sketch=1;curveFitting=1;jiggle=2;" parent="WIyWlLk6GJQsqaUBKTNV-1" vertex="1"><mxGeometry y="80" width="60" height="20" as="geometry"/></mxCell><mxCell id="Ej2ZJ5dRe7RWiWZ61lz6-33" value="Json Data" style="rounded=1;whiteSpace=wrap;html=1;fontSize=12;glass=0;strokeWidth=1;shadow=0;sketch=1;curveFitting=1;jiggle=2;" parent="WIyWlLk6GJQsqaUBKTNV-1" vertex="1"><mxGeometry x="41" y="280" width="120" height="40" as="geometry"/></mxCell><mxCell id="ZdJ8CydNvx8ROQ2hmb3w-2" style="edgeStyle=orthogonalEdgeStyle;rounded=0;orthogonalLoop=1;jettySize=auto;html=1;entryX=0.5;entryY=0;entryDx=0;entryDy=0;sketch=1;curveFitting=1;jiggle=2;" parent="WIyWlLk6GJQsqaUBKTNV-1" source="ZdJ8CydNvx8ROQ2hmb3w-0" target="Ej2ZJ5dRe7RWiWZ61lz6-21" edge="1"><mxGeometry relative="1" as="geometry"/></mxCell><mxCell id="ZdJ8CydNvx8ROQ2hmb3w-0" value="Batch Event" style="shape=cylinder3;whiteSpace=wrap;html=1;boundedLbl=1;backgroundOutline=1;size=15;direction=south;fillColor=none;strokeColor=#6c8ebf;sketch=1;curveFitting=1;jiggle=2;" parent="WIyWlLk6GJQsqaUBKTNV-1" vertex="1"><mxGeometry x="31" y="144" width="140" height="20" as="geometry"/></mxCell><mxCell id="4jyuMvls2FIqYxRur5Rw-3" value="Spark Real Time Dashboard" style="rounded=1;whiteSpace=wrap;html=1;fontSize=12;glass=0;strokeWidth=1;shadow=0;sketch=1;curveFitting=1;jiggle=2;" parent="WIyWlLk6GJQsqaUBKTNV-1" vertex="1"><mxGeometry x="370" y="174" width="120" height="40" as="geometry"/></mxCell><mxCell id="4jyuMvls2FIqYxRur5Rw-5" value="" style="endArrow=classic;html=1;rounded=0;sketch=1;curveFitting=1;jiggle=2;" parent="WIyWlLk6GJQsqaUBKTNV-1" target="4jyuMvls2FIqYxRur5Rw-3" edge="1"><mxGeometry width="50" height="50" relative="1" as="geometry"><mxPoint x="290" y="194" as="sourcePoint"/><mxPoint x="340" y="144" as="targetPoint"/></mxGeometry></mxCell><mxCell id="4jyuMvls2FIqYxRur5Rw-6" value="" style="rounded=0;whiteSpace=wrap;html=1;sketch=1;curveFitting=1;jiggle=2;" parent="WIyWlLk6GJQsqaUBKTNV-1" vertex="1"><mxGeometry x="-31" y="540" width="890" height="480" as="geometry"/></mxCell><mxCell id="4jyuMvls2FIqYxRur5Rw-7" value="&lt;font style=&quot;font-size: 20px;&quot;&gt;Console&lt;/font&gt;" style="text;html=1;strokeColor=none;fillColor=none;align=center;verticalAlign=middle;whiteSpace=wrap;rounded=0;" parent="WIyWlLk6GJQsqaUBKTNV-1" vertex="1"><mxGeometry x="-10" y="540" width="80" height="30" as="geometry"/></mxCell><mxCell id="dU3OxeECDIwcLIIHzpWQ-0" value="Mongo" style="shape=cylinder3;whiteSpace=wrap;html=1;boundedLbl=1;backgroundOutline=1;size=15;shadow=0;sketch=1;curveFitting=1;jiggle=2;" parent="WIyWlLk6GJQsqaUBKTNV-1" vertex="1"><mxGeometry x="261" y="110" width="60" height="54" as="geometry"/></mxCell></root></mxGraphModel></diagram></mxfile>